<svg width="24" height="24" xmlns="http://www.w3.org/2000/svg">

 <g>
  <title>background</title>
  <rect fill="none" id="canvas_background" height="602" width="802" y="-1" x="-1"/>
 </g>
 <g>
  <title>Layer 1</title>
  <path id="svg_1" fill-rule="evenodd" fill="#bfcfe0" d="m17,6.25a1,1 0 0 0 -1,1l0,3.45l-6.38,-3.68c-0.65,-0.38 -0.98,-0.57 -1.24,-0.6a1.25,1.25 0 0 0 -1.27,0.74c-0.11,0.24 -0.11,0.62 -0.11,1.38l0,6.92a4,4 0 0 0 0.1,1.38c0.23,0.5 0.74,0.79 1.28,0.73a4,4 0 0 0 1.24,-0.59l6.38,-3.68l0,3.45a1,1 0 1 0 2,0l0,-9.5a1,1 0 0 0 -1,-1z" clip-rule="evenodd"/>
 </g>
</svg>