<svg xmlns="http://www.w3.org/2000/svg" xml:space="preserve" width="16" height="16" style="enable-background:new 0 0 16 16">
  <path d="M14 15s-.1 0-.2-.1c-.1 0-1-.9-2.1-2l-2-2-.1.1c-1.3.9-2.8 1.1-4.3.8-2-.5-3.5-2-4-3.9-.2-.5-.3-.8-.3-1.4 0-.7.1-1.3.3-1.9.7-1.9 2.4-3.2 4.4-3.5.4-.1 1.2-.1 1.6 0 2.4.3 4.2 2.2 4.6 4.5.2 1.4-.1 2.8-.8 3.9-.1.2-.2.3-.2.3l2 2c1.6 1.6 2 2 2 2.1.2.4 0 .9-.4 1-.1.1-.3.1-.5.1zm-6.8-4.6c1.4-.3 2.6-1.3 3.1-2.7.2-.5.2-.7.2-1.3 0-.5 0-.6-.1-.8-.2-.8-.5-1.4-1.1-2-.6-.5-1.3-.9-2.1-1-.4-.1-1.1-.1-1.4 0-1.7.3-3 1.7-3.3 3.4v1.2C2.8 9 4.2 10.3 6 10.5c.3 0 .9 0 1.2-.1z" style="opacity:.5;fill:#fff"/>
</svg>
