<?xml version="1.0" encoding="UTF-8" standalone="no"?>
<svg
   width="16"
   height="16"
   version="1.1"
   id="svg27"
   sodipodi:docname="lens.svg"
   inkscape:version="1.1 (c68e22c387, 2021-05-23)"
   xmlns:inkscape="http://www.inkscape.org/namespaces/inkscape"
   xmlns:sodipodi="http://sodipodi.sourceforge.net/DTD/sodipodi-0.dtd"
   xmlns="http://www.w3.org/2000/svg"
   xmlns:svg="http://www.w3.org/2000/svg">
  <defs
     id="defs31" />
  <sodipodi:namedview
     id="namedview29"
     pagecolor="#ffffff"
     bordercolor="#666666"
     borderopacity="1.0"
     inkscape:pageshadow="2"
     inkscape:pageopacity="0.0"
     inkscape:pagecheckerboard="0"
     showgrid="false"
     inkscape:zoom="36.990524"
     inkscape:cx="4.8525942"
     inkscape:cy="9.4213319"
     inkscape:window-width="1920"
     inkscape:window-height="1031"
     inkscape:window-x="-8"
     inkscape:window-y="22"
     inkscape:window-maximized="1"
     inkscape:current-layer="svg27" />
  <g
     fill="none"
     fill-rule="evenodd"
     opacity=".92"
     id="g25">
    <path
       opacity=".1"
       d="M0 0H16V16H0z"
       id="path21" />
    <path
       d="M6.5 1a5.5 5.5 0 0 1 4.383 8.823l3.896 3.9a.75.75 0 0 1-1.061 1.06l-3.895-3.9A5.5 5.5 0 1 1 6.5 1zm0 1.5a4 4 0 1 0 0 8 4 4 0 0 0 0-8z"
       fill="#818c99"
       fill-rule="nonzero"
       id="path23" />
  </g>
  <path
     style="fill:#86a1bf;stroke:none;stroke-width:0.027034;fill-opacity:1"
     d="m 14.043963,14.95155 c -0.03727,-0.01134 -0.110129,-0.04252 -0.161913,-0.0693 -0.05178,-0.02678 -0.982535,-0.942773 -2.068336,-2.035544 L 9.8395307,10.85985 9.5737712,11.038786 C 8.3073461,11.891471 6.7277977,12.183329 5.2498962,11.837722 3.2961307,11.380834 1.7186181,9.8521679 1.205183,7.9182499 1.0623892,7.3803992 1.03097,7.1257759 1.0303838,6.5016652 1.0296848,5.75756 1.1199323,5.2313463 1.3572515,4.5957717 2.0631,2.7054081 3.7470897,1.3519413 5.7465383,1.0679862 c 0.4031706,-0.057257 1.1047597,-0.057174 1.5102538,1.786e-4 2.3730451,0.3356407 4.2467219,2.1608181 4.6498869,4.5295265 0.230068,1.3517143 -0.07264,2.7762886 -0.833713,3.9235224 -0.10549,0.1590159 -0.191801,0.2989479 -0.191801,0.3109599 0,0.012012 0.889302,0.9098744 1.976227,1.9952494 1.57706,1.574812 1.989269,2.000711 2.040799,2.108579 0.182301,0.38161 -0.0183,0.863293 -0.415961,0.998789 -0.129526,0.04413 -0.323846,0.05157 -0.438267,0.01676 z M 7.2168589,10.447553 C 8.6475286,10.191995 9.8400478,9.1587206 10.299956,7.7761611 10.462693,7.2869472 10.48928,7.1050541 10.488225,6.4881482 10.48743,6.0233184 10.477983,5.8924816 10.429636,5.6767758 10.251144,4.8804124 9.8946586,4.2284462 9.327964,3.661958 8.7449298,3.0791359 8.0290232,2.7021888 7.2180649,2.5510303 6.8445076,2.4814012 6.1581064,2.4814757 5.7852655,2.551186 4.0837408,2.8693207 2.7853896,4.2116701 2.52894,5.9178606 2.4852687,6.2084112 2.491793,6.863383 2.5412182,7.15048 c 0.3072894,1.7849532 1.7052508,3.117777 3.5008698,3.337748 0.2727715,0.03341 0.8771401,0.01249 1.1747709,-0.04068 z"
     id="path150" />
  <path
     style="fill:#86a1bf;fill-opacity:1;stroke-width:0.027034"
     d="m 13.949519,14.904557 c -0.06049,-0.02609 -0.816465,-0.761435 -2.096048,-2.038858 -1.100786,-1.098928 -2.0095854,-1.998051 -2.0195548,-1.998051 -0.00997,0 -0.1372924,0.07704 -0.28294,0.171206 -1.4405871,0.931357 -3.117944,1.174162 -4.6845068,0.678104 C 3.6177647,11.321551 2.532523,10.475667 1.8386864,9.3569717 1.4644314,8.7535485 1.1746843,7.9563702 1.0814794,7.2736759 1.0362337,6.9422667 1.0433026,6.021712 1.0938369,5.6643937 1.2473968,4.5786019 1.7923955,3.4919904 2.5886181,2.6841186 3.4354647,1.8248821 4.4609385,1.2937288 5.6636127,1.0913976 c 0.3750191,-0.063091 1.3011203,-0.062998 1.676105,1.684e-4 1.3094486,0.2205775 2.4433371,0.8483486 3.2775253,1.8145837 1.605685,1.8598556 1.798241,4.4865597 0.4805,6.5546066 -0.09908,0.1555015 -0.192355,0.3055307 -0.20727,0.3333984 -0.0235,0.043913 0.214112,0.2927633 1.782185,1.8664693 2.091284,2.098796 2.209815,2.223356 2.248576,2.36293 0.0528,0.190128 0.03533,0.363323 -0.05486,0.543805 -0.133391,0.26694 -0.32997,0.383926 -0.638889,0.380211 -0.100841,-0.0012 -0.225926,-0.02057 -0.277966,-0.04301 z M 7.2475379,10.450374 C 8.0807207,10.303013 8.9423109,9.8113099 9.5115753,9.1583054 9.97845,8.6227525 10.337289,7.8927088 10.449259,7.2506281 c 0.05547,-0.318102 0.05427,-1.2214972 -0.002,-1.518231 C 10.183626,4.3427288 9.1263242,3.1383911 7.7763517,2.6900744 7.3792597,2.5582028 7.1186057,2.5113247 6.6909029,2.4948584 6.2049649,2.47615 5.8105536,2.5195949 5.4040062,2.6366116 3.9436711,3.0569401 2.8703897,4.2206432 2.5498743,5.7311976 2.4817599,6.0522136 2.4816148,6.9135883 2.5496175,7.2523953 2.6514841,7.7599175 2.8674915,8.2894061 3.1432209,8.7074669 3.7748474,9.6651392 4.7054,10.264276 5.8934008,10.478171 c 0.2557633,0.04605 1.0260038,0.03024 1.3541365,-0.0278 z"
     id="path1041" />
</svg>
