<svg width="24" height="24" xmlns="http://www.w3.org/2000/svg">
 <g>
  <title>background</title>
  <rect x="-1" y="-1" width="26" height="26" id="canvas_background" fill="none"/>
 </g>

 <g>
  <title>Layer 1</title>
  <path clip-rule="evenodd" d="m16.7,3.6a17.3,17.3 0 0 1 1.8,-0.2c0.2,0 0.4,0.2 0.5,0.4l0,0.4l0.1,1.3l-10.2,2.1l0,-0.5a15.5,15.5 0 0 1 0,-1.4l0.5,-0.5l0.3,-0.1l1,-0.2l6,-1.3zm-9.6,11l-0.2,0a6,6 0 0 0 -4,1.2c-1,0.8 -1.3,1.8 -1.3,2.7c0,1.9 1.5,3.5 3.4,3.5c0.9,0 2,-0.4 2.7,-1.3a6,6 0 0 0 1.2,-4l0,-7.2l10.2,-2.1l0,5.2l-0.2,0a6,6 0 0 0 -4,1.2c-1,0.8 -1.3,1.8 -1.3,2.7c0,1.9 1.5,3.4 3.4,3.4c0.9,0 2,-0.4 2.7,-1.3a6,6 0 0 0 1.2,-4l0,-9.1l0,-1.5c0,-0.4 -0.2,-0.8 -0.4,-1.2c-0.3,-0.5 -0.8,-1 -1.4,-1.1c-0.4,-0.2 -0.9,-0.2 -1.3,-0.1l-1.4,0.2l-6,1.3l-1.2,0.2a3,3 0 0 0 -0.9,0.5c-0.4,0.3 -0.7,0.7 -1,1.2a3,3 0 0 0 -0.2,1l0,1l0,7.6zm9,0.6c-0.5,0.4 -0.7,0.9 -0.7,1.3c0,0.9 0.7,1.6 1.6,1.6c0.4,0 1,-0.2 1.3,-0.6c0.4,-0.5 0.8,-1.4 0.8,-2.9l0,-0.2l-0.2,0c-1.5,0 -2.4,0.4 -2.9,0.8l0.1,0zm-12.8,3.3c0,-0.4 0.2,-1 0.6,-1.3c0.5,-0.4 1.4,-0.8 2.9,-0.8l0.2,0l0,0.2c0,1.5 -0.4,2.4 -0.8,2.9c-0.4,0.4 -0.9,0.6 -1.3,0.6c-0.9,0 -1.6,-0.7 -1.6,-1.6z" fill="#96b0cc" fill-rule="evenodd" id="svg_1"/>
 </g>
</svg>