<svg width="24" height="24" xmlns="http://www.w3.org/2000/svg">

 <g>
  <title>background</title>
  <rect fill="none" id="canvas_background" height="602" width="802" y="-1" x="-1"/>
 </g>
 <g>
  <title>Layer 1</title>
  <path id="svg_1" fill-rule="evenodd" fill="#bfcfe0" d="m5.1,4.55c-0.1,0.21 -0.1,0.49 -0.1,1.05l0,12.8c0,0.56 0,0.84 0.1,1.05a1,1 0 0 0 0.45,0.44c0.21,0.11 0.49,0.11 1.05,0.11l1.8,0c0.56,0 0.84,0 1.05,-0.1a1,1 0 0 0 0.44,-0.45c0.11,-0.21 0.11,-0.49 0.11,-1.05l0,-12.8c0,-0.56 0,-0.84 -0.1,-1.05a1,1 0 0 0 -0.45,-0.44c-0.21,-0.11 -0.49,-0.11 -1.05,-0.11l-1.8,0c-0.56,0 -0.84,0 -1.05,0.1a1,1 0 0 0 -0.44,0.45l-0.01,0zm9,0c-0.1,0.21 -0.1,0.49 -0.1,1.05l0,12.8c0,0.56 0,0.84 0.1,1.05a1,1 0 0 0 0.45,0.44c0.21,0.11 0.49,0.11 1.05,0.11l1.8,0c0.56,0 0.84,0 1.05,-0.1a1,1 0 0 0 0.44,-0.45c0.11,-0.21 0.11,-0.49 0.11,-1.05l0,-12.8c0,-0.56 0,-0.84 -0.1,-1.05a1,1 0 0 0 -0.45,-0.44c-0.21,-0.11 -0.49,-0.11 -1.05,-0.11l-1.8,0c-0.56,0 -0.84,0 -1.05,0.1a1,1 0 0 0 -0.44,0.45l-0.01,0z" clip-rule="evenodd"/>
 </g>
</svg>