<svg width="23.999999999999996" height="23.999999999999996" xmlns="http://www.w3.org/2000/svg">

 <g>
  <title>background</title>
  <rect fill="none" id="canvas_background" height="602" width="802" y="-1" x="-1"/>
 </g>
 <g>
  <title>Layer 1</title>
  <path id="svg_1" fill="#bfcfe0" d="m17.74,9.97c0.88,0.5 1.31,0.76 1.52,1.04c0.43,0.59 0.43,1.38 0,1.97c-0.2,0.28 -0.64,0.53 -1.52,1.04l-7.23,4.17c-0.87,0.5 -1.3,0.76 -1.66,0.8c-0.72,0.07 -1.4,-0.32 -1.7,-0.98c-0.14,-0.33 -0.14,-0.83 -0.14,-1.84l0,-8.35c0,-1 0,-1.51 0.14,-1.83c0.3,-0.67 0.98,-1.06 1.7,-0.99c0.35,0.04 0.8,0.3 1.66,0.8l7.23,4.17z"/>
 </g>
</svg>